# This file uses meters as units for non-parametric coordinates.

mtllib Jellyfish_inside.mtl
g default
v 203.693435 394.896510 1756.236493
v -111.619563 435.603713 1477.601058
v 132.485496 483.745918 1660.075295
v 65.117237 496.647595 1571.023909
v 184.988369 447.042469 1662.099033
v 80.635276 501.446565 1674.016687
v -164.170838 447.458757 1742.482375
v -67.563352 490.691447 1550.212210
v -1.728918 469.521941 1488.883009
v -188.570185 386.195263 1512.386626
v -55.739714 432.508732 1449.546625
v -96.709954 369.737312 1706.802402
v -91.729130 363.594364 1584.789300
v -152.662036 299.221492 1433.333731
v -65.317610 300.324180 1395.993519
v 120.260257 299.021049 1414.578805
v 204.313626 302.370908 1475.099203
v 169.685239 390.428840 1491.366337
v 253.360642 307.390075 1565.940402
v 214.208867 392.714181 1571.906819
v 228.101781 391.651503 1666.325189
v 173.272692 447.835982 1582.992121
v 139.680993 441.957902 1510.703619
v 101.152945 388.331136 1437.242258
v 25.796403 303.187580 1387.638415
v 81.178773 436.180042 1460.962390
v -84.042012 500.810192 1675.245684
v 91.376618 485.822501 1735.871550
v 48.000484 442.918265 1830.223961
v -48.097406 389.167366 1877.128297
v 58.735063 389.737753 1874.691508
v 146.591520 393.697283 1825.231078
v 165.714325 302.362371 1856.005665
v 233.657211 304.519365 1771.956761
v 262.007844 308.496948 1669.034406
v 159.387130 340.584348 1596.095581
v 88.908496 363.655691 1571.980143
v 12.274840 358.120824 1555.226411
v -77.046240 363.037649 1594.799844
v -19.093367 283.236524 1627.128423
v 64.387436 304.383263 1904.641891
v -50.419698 304.982611 1906.868639
v -153.343051 302.480561 1863.885888
v -138.778357 390.835697 1833.618323
v -198.874781 392.250293 1767.510408
v -258.714095 308.190703 1688.775811
v -222.517110 388.282169 1591.078590
v -180.181043 444.677805 1595.689561
v -133.305850 480.145477 1601.781087
v -222.074651 303.807686 1500.763722
v -258.105874 308.300607 1589.795465
v -224.987409 303.970184 1787.091213
v -14.915024 370.656883 1744.037817
v 107.858634 365.846083 1703.163624
v 85.755599 361.594984 1655.311314
v 37.719213 293.780904 1621.498608
vt 0.450334 0.142867
vt 0.476339 0.111884
vt 0.496782 0.118918
vt 0.512578 0.130577
vt 0.500690 0.149256
vt 0.460699 0.177505
vt 0.585902 0.189922
vt 0.565675 0.225763
vt 0.567666 0.153138
vt 0.607698 0.093003
vt 0.579957 0.112076
vt 0.566955 0.082442
vt 0.638049 0.113857
vt 0.592693 0.074836
vt 0.483737 0.013209
vt 0.535189 0.000479
vt 0.504521 0.047020
vt 0.442633 0.046214
vt 0.473643 0.070377
vt 0.452920 0.104508
vt 0.416870 0.093197
vt 0.409971 0.147240
vt 0.548840 0.392097
vt 0.533726 0.401233
vt 0.503908 0.395742
vt 0.570833 0.346307
vt 0.531341 0.343740
vt 0.590100 0.396093
vt 0.582990 0.394698
vt 0.661761 0.410427
vt 0.643726 0.451346
vt 0.612579 0.482176
vt 0.574774 0.501168
vt 0.552296 0.426554
vt 0.446599 0.463974
vt 0.482254 0.434358
vt 0.483295 0.494534
vt 0.529609 0.506189
vt 0.517003 0.430457
vt 0.487249 0.380280
vt 0.492474 0.086181
vt 0.515205 0.066338
vt 0.532532 0.100150
vt 0.540067 0.038075
vt 0.542607 0.058138
vt 0.584214 0.011066
vt 0.500379 0.189419
vt 0.525721 0.227836
vt 0.485273 0.210512
vt 0.462594 0.242691
vt 0.424953 0.199745
vt 0.571115 0.266186
vt 0.517331 0.265528
vt 0.600107 0.211150
vt 0.620998 0.244907
vt 0.654302 0.204765
vt 0.639319 0.150166
vt 0.674468 0.159329
vt 0.614991 0.142707
vt 0.595232 0.137531
vt 0.656249 0.064703
vt 0.675259 0.110029
vt 0.624216 0.031569
vt 0.425238 0.421008
vt 0.419492 0.371739
vt 0.434454 0.324343
vt 0.469344 0.286323
vt 0.614034 0.286855
vt 0.645164 0.323443
vt 0.661816 0.365988
vn 0.757189 0.504548 0.414845
vn 0.705653 0.706441 0.054725
vn 0.489669 0.870102 0.056100
vn 0.213478 0.968799 0.125919
vn 0.259477 0.893579 0.366318
vn 0.557636 0.491401 0.669004
vn -0.620472 0.733559 0.277320
vn -0.423512 0.601699 0.677197
vn -0.196646 0.946150 0.257160
vn -0.464362 0.572171 -0.676009
vn -0.226140 0.929451 -0.291515
vn 0.019213 0.863952 -0.503207
vn -0.653915 0.541241 -0.528633
vn -0.198652 0.486249 -0.850940
vn -0.172437 -0.980563 0.093606
vn 0.418801 -0.900032 -0.120615
vn 0.409820 -0.857893 0.309947
vn 0.155816 -0.987523 -0.022810
vn 0.038784 -0.995712 -0.083986
vn 0.242823 -0.958085 0.152019
vn -0.571040 -0.760794 -0.308392
vn -0.232008 -0.968232 -0.093266
vn -0.368213 -0.658171 -0.656681
vn -0.254140 -0.604488 -0.754988
vn 0.007769 -0.775124 -0.631762
vn -0.018620 -0.997355 0.070265
vn 0.504236 -0.789027 -0.350975
vn 0.153352 -0.941270 -0.300823
vn 0.662338 0.478744 -0.576292
vn 0.550596 -0.826723 -0.115641
vn 0.835563 0.495973 -0.236315
vn 0.887945 0.457116 0.050972
vn 0.613316 -0.785620 0.081510
vn 0.603665 -0.774828 0.187696
vn 0.597557 0.766661 -0.234854
vn 0.513604 0.748242 -0.419934
vn 0.190735 0.959386 -0.207843
vn 0.386138 0.435449 -0.813193
vn 0.229279 0.641064 -0.732440
vn -0.010699 0.842393 0.538758
vn -0.195985 0.496493 0.845627
vn 0.224937 0.423326 0.877609
vn 0.098684 -0.760849 0.641381
vn 0.614318 0.115218 0.780601
vn -0.321991 -0.939955 0.113161
vn -0.077359 -0.984969 0.154438
vn -0.242260 -0.953685 -0.178312
vn -0.386666 -0.714947 0.582528
vn -0.135096 -0.666696 0.732984
vn -0.771136 0.451777 0.448605
vn -0.464754 -0.828531 0.312315
vn -0.300923 -0.948610 0.097899
vn -0.847562 0.530691 -0.002526
vn 0.063718 -0.997863 0.014495
vn -0.726795 0.675863 -0.122384
vn -0.487009 0.834230 -0.258616
s 1
g Brain:Group59970
usemtl Brain:defaultMat
f 1/1/1 5/2/2 3/3/3
f 1/1/1 3/3/3 6/4/4 28/5/5
f 1/1/1 28/5/5 32/6/6
f 7/7/7 44/8/8 27/9/9
f 2/10/10 8/11/11 9/12/12
f 2/10/10 10/13/13 8/11/11
f 2/10/10 9/12/12 11/14/14
f 40/23/15 56/24/16 55/25/17
f 12/26/18 40/23/15 53/27/19
f 13/28/20 39/29/21 12/26/18
f 13/28/20 50/30/22 14/31/23
f 13/28/20 14/31/23 15/32/24
f 15/32/24 25/33/25 38/34/26
f 17/15/27 16/16/28 18/17/29
f 17/15/27 18/17/29 19/18/30
f 19/18/30 18/17/29 20/19/31
f 19/18/30 20/19/31 21/20/32 35/21/33
f 21/20/32 1/1/1 34/22/34 35/21/33
f 21/20/32 20/19/31 22/41/35 5/2/2
f 21/20/32 5/2/2 1/1/1
f 22/41/35 20/19/31 18/17/29 23/42/36
f 22/41/35 23/42/36 4/43/37 3/3/3
f 22/41/35 3/3/3 5/2/2
f 23/42/36 18/17/29 24/44/38 26/45/39
f 23/42/36 26/45/39 4/43/37
f 26/45/39 24/44/38 25/46/25
f 26/45/39 9/12/12 4/43/37
f 9/12/12 26/45/39 11/14/14
f 9/12/12 8/11/11 4/43/37
f 8/11/11 27/9/9 4/43/37
f 6/4/4 27/9/9 28/5/5
f 6/4/4 4/43/37 27/9/9
f 28/5/5 27/9/9 29/47/40
f 28/5/5 29/47/40 32/6/6
f 29/47/40 30/48/41 31/49/42
f 29/47/40 31/49/42 32/6/6
f 32/6/6 31/49/42 41/50/43 33/51/44
f 32/6/6 33/51/44 34/22/34 1/1/1
f 19/35/30 36/36/45 17/37/27
f 36/36/45 16/38/28 17/37/27
f 16/38/28 36/36/45 37/39/46
f 16/38/28 37/39/46 38/34/26
f 16/38/28 38/34/26 25/33/25
f 38/34/26 13/28/20 15/32/24
f 13/28/20 38/34/26 39/29/21
f 12/26/18 39/29/21 40/23/15
f 39/29/21 38/34/26 40/23/15
f 37/39/46 36/36/45 54/40/47
f 54/40/47 36/36/45 19/35/30 35/64/33
f 54/40/47 35/64/33 34/65/34
f 34/65/34 33/66/44 41/67/43
f 43/52/48 42/53/49 30/48/41 44/8/8
f 43/52/48 44/8/8 45/54/50 52/55/51
f 45/54/50 46/56/52 52/55/51
f 45/54/50 44/8/8 7/7/7
f 45/54/50 7/7/7 46/56/52
f 46/56/52 47/57/53 51/58/54
f 47/57/53 10/13/13 51/58/54
f 47/57/53 46/56/52 7/7/7 48/59/55
f 47/57/53 48/59/55 10/13/13
f 48/59/55 7/7/7 49/60/56
f 48/59/55 49/60/56 8/11/11 10/13/13
f 49/60/56 7/7/7 27/9/9
f 49/60/56 27/9/9 8/11/11
f 10/13/13 14/61/23 50/62/22
f 10/13/13 50/62/22 51/58/54
f 10/13/13 2/10/10 14/61/23
f 2/10/10 11/14/14 15/63/24 14/61/23
f 15/63/24 11/14/14 25/46/25
f 42/53/49 43/52/48 53/27/19
f 42/53/49 53/27/19 41/67/43
f 41/67/43 53/27/19 54/40/47
f 54/40/47 34/65/34 41/67/43
f 37/39/46 54/40/47 55/25/17
f 38/34/26 37/39/46 56/24/16
f 37/39/46 55/25/17 56/24/16
f 55/25/17 54/40/47 53/27/19
f 12/26/18 53/27/19 52/68/51
f 52/68/51 53/27/19 43/52/48
f 52/68/51 46/69/52 12/26/18
f 46/69/52 51/70/54 13/28/20 12/26/18
f 51/70/54 50/30/22 13/28/20
f 55/25/17 53/27/19 40/23/15
f 25/46/25 24/44/38 16/16/28
f 11/14/14 26/45/39 25/46/25
f 44/8/8 30/48/41 29/47/40
f 42/53/49 41/50/43 31/49/42 30/48/41
f 40/23/15 38/34/26 56/24/16
f 29/47/40 27/9/9 44/8/8
f 24/44/38 18/17/29 16/16/28
f 6/4/4 3/3/3 4/43/37
