# This file uses centimeters as units for non-parametric coordinates.

mtllib Cliff Block.mtl
g default
v -2109.150257 -1464.315452 105.926425
v -15.971761 -1464.315452 105.926425
v -2109.150257 290.542906 105.926425
v 30.343571 290.542906 105.926425
v -2109.150257 290.542906 -54.773551
v 30.343571 290.542906 -54.773551
v -2109.150257 -1464.315452 -54.773551
v -15.971761 -1464.315452 -54.773551
v -15.971761 -83.983760 -54.773551
v -2109.150257 -83.983760 -54.773551
v -2109.150257 -83.983725 105.926425
v -15.971761 -83.983725 105.926425
vt 0.718276 0.607692
vt 0.696316 0.312629
vt 0.924169 0.607691
vt 0.976760 0.324812
vt 0.945418 0.611641
vt 0.998008 0.328764
vt 0.970132 0.295591
vt 0.970132 0.089697
vt 0.985939 0.295591
vt 0.985939 0.089697
vt 0.697431 0.286978
vt 0.977878 0.299174
vt 0.718279 0.626539
vt 0.924171 0.626548
vt 0.917664 0.296558
vt 0.880225 0.626548
vt 0.880228 0.607692
vt 0.916548 0.322195
vt 0.573407 0.832462
vt 0.533338 0.026713
vt 0.676622 0.001714
vt 0.717577 0.825292
vt 0.042061 0.858885
vt 0.001992 0.053136
vn 0.000000 0.000000 1.000000
vn 0.000000 0.000000 1.000000
vn 0.000000 0.000000 1.000000
vn 0.000000 0.000000 1.000000
vn 0.000000 1.000000 0.000000
vn 0.000000 1.000000 0.000000
vn 0.000000 1.000000 0.000000
vn 0.000000 1.000000 0.000000
vn 0.000000 -1.000000 0.000000
vn 0.000000 -1.000000 0.000000
vn 0.000000 -1.000000 0.000000
vn 0.000000 -1.000000 0.000000
vn 0.999652 -0.026383 0.000000
vn 0.999652 -0.026383 0.000000
vn 0.992440 -0.122729 0.000000
vn 0.992440 -0.122729 0.000000
vn -1.000000 0.000000 0.000000
vn -1.000000 0.000000 0.000000
vn -1.000000 0.000000 0.000000
vn -1.000000 0.000000 0.000000
vn -1.000000 0.000000 0.000000
vn -1.000000 0.000000 0.000000
vn 0.000000 0.000000 1.000000
vn 0.000000 0.000000 1.000000
vn 1.000000 0.000000 0.000000
vn 1.000000 0.000000 0.000000
s 1
g pCube1
usemtl initialShadingGroup
f 11/19/1 12/20/2 4/21/3 3/22/4
s off
f 3/3/5 4/4/6 6/6/7 5/5/8
f 7/7/9 8/8/10 2/10/11 1/9/12
s 2
f 12/18/13 9/15/14 6/12/15 4/4/16
s 3
f 10/16/17 11/17/18 3/3/19 5/14/20
f 7/13/21 1/1/22 11/17/18 10/16/17
s 1
f 1/23/23 2/24/24 12/20/2 11/19/1
s 2
f 2/2/25 8/11/26 9/15/14 12/18/13
