# This file uses meters as units for non-parametric coordinates.

mtllib Seafloor.mtl
g default
v -1110.453857 -0.000000 398.662659
v -888.363098 -0.000000 398.662659
v -666.272278 -0.000000 398.662659
v -444.181549 -0.000000 398.662659
v -222.090775 -0.000000 398.662659
v 0.000000 -0.000000 398.662659
v 222.090775 -0.000000 398.662659
v 444.181549 -0.000000 398.662659
v 666.272278 -0.000000 398.662659
v 888.363098 -0.000000 398.662659
v 1110.453857 -0.000000 398.662659
v -1110.453857 -0.000000 318.930145
v -888.363098 -0.000000 318.930145
v -666.272278 -0.000000 318.930145
v -444.181549 11.117706 318.930145
v -222.090775 11.117706 318.930145
v 0.000000 -0.000000 318.930145
v 222.090775 -0.000000 318.930145
v 444.181549 -0.000000 318.930145
v 666.272278 12.797857 318.930145
v 888.363098 12.797857 318.930145
v 1110.453857 -0.000000 318.930145
v -1110.453857 -0.000000 239.197586
v -888.363098 14.592951 239.197586
v -666.272278 14.592951 239.197586
v -444.181549 11.117706 239.197586
v -222.090775 11.117706 239.197586
v 0.000000 8.456325 239.197586
v 222.090775 8.456325 239.197586
v 444.181549 -0.000000 239.197586
v 666.272278 12.797857 239.197586
v 888.363098 12.797857 239.197586
v 1110.453857 -0.000000 239.197586
v -1110.453857 -0.000000 159.465073
v -888.363098 14.592951 159.465073
v -666.272278 14.592951 159.465073
v -444.181549 -0.000000 159.465073
v -222.090775 -0.000000 159.465073
v 0.000000 27.496851 159.465073
v 222.090775 27.496851 159.465073
v 444.181549 -0.000000 159.465073
v 666.272278 -0.000000 159.465073
v 888.363098 -0.000000 159.465073
v 1110.453857 -0.000000 159.465073
v -1110.453857 -0.000000 79.732536
v -888.363098 -0.000000 79.732536
v -666.272278 -0.000000 79.732536
v -444.181549 17.185514 79.732536
v -222.090775 17.185514 79.732536
v 0.000000 19.040525 79.732536
v 222.090775 19.040525 79.732536
v 444.181549 10.454318 79.732536
v 666.272278 10.454318 79.732536
v 888.363098 -0.000000 79.732536
v 1110.453857 -0.000000 79.732536
v -1110.453857 0.000000 0.000000
v -888.363098 12.943520 0.000000
v -666.272278 12.943520 0.000000
v -444.181549 41.615322 0.000000
v -222.090775 39.520859 0.000000
v 0.000000 14.880980 0.000000
v 222.090775 14.880980 0.000000
v 444.181549 10.454318 0.000000
v 666.272278 10.454318 0.000000
v 888.363098 12.610763 0.000000
v 1110.453857 12.610763 0.000000
v -1110.453857 4.595535 -79.732536
v -888.363098 17.539059 -79.732536
v -666.272278 17.539059 -79.732536
v -444.181549 52.273815 -79.732536
v -222.090775 52.273815 -79.732536
v 0.000000 19.476515 -79.732536
v 222.090775 19.476515 -79.732536
v 444.181549 16.326605 -79.732536
v 666.272278 16.326605 -79.732536
v 888.363098 17.206299 -79.732536
v 1110.453857 17.206299 -79.732536
v -1110.453857 10.158548 -159.465073
v -888.363098 10.158548 -159.465073
v -666.272278 10.158548 -159.465073
v -444.181549 57.836830 -159.465073
v -222.090775 57.836830 -159.465073
v 0.000000 10.158548 -159.465073
v 222.090775 10.158548 -159.465073
v 444.181549 21.889624 -159.465073
v 666.272278 21.889624 -159.465073
v 888.363098 10.158548 -159.465073
v 1110.453857 10.158548 -159.465073
v -1110.453857 20.075222 -239.197586
v -888.363098 32.603333 -239.197586
v -666.272278 32.603333 -239.197586
v -444.181549 47.907787 -239.197586
v -222.090775 47.907787 -239.197586
v 0.000000 20.075222 -239.197586
v 222.090775 20.075222 -239.197586
v 444.181549 46.698910 -239.197586
v 666.272278 46.698910 -239.197586
v 888.363098 20.075222 -239.197586
v 1110.453857 20.075222 -239.197586
v -1110.453857 76.175194 -318.930145
v -888.363098 76.175194 -318.930145
v -666.272278 76.175194 -318.930145
v -444.181549 76.175194 -318.930145
v -222.090775 76.175194 -318.930145
v 0.000000 76.175194 -318.930145
v 222.090775 76.175194 -318.930145
v 444.181549 76.175194 -318.930145
v 666.272278 76.175194 -318.930145
v 888.363098 76.175194 -318.930145
v 1110.453857 76.175194 -318.930145
v -1110.453857 169.193298 -852.681274
v -886.376770 148.283829 -852.681274
v -668.258667 190.102783 -852.681274
v -444.181549 224.925171 -852.681274
v -222.090775 224.925171 -852.681274
v 1.757784 188.873184 -1028.890869
v 220.332993 149.513428 -1028.890869
v 445.071411 158.715302 -852.681274
v 665.382446 130.655716 -852.681274
v 888.363098 169.193298 -852.681274
v 1110.453857 169.193298 -852.681274
v -1110.453857 307.618103 -2586.675537
v -888.363098 307.618103 -2586.675537
v -666.272278 307.618103 -2586.675537
v -444.181549 307.618103 -2586.675537
v -222.090775 307.618103 -2586.675537
v 0.000000 307.618103 -2586.675537
v 222.090775 307.618103 -2586.675537
v 444.181549 307.618103 -2586.675537
v 666.272278 307.618103 -2586.675537
v 888.363098 307.618103 -2586.675537
v 1110.453857 307.618103 -2586.675537
vt 0.008500 0.000000
vt 0.081605 0.000659
vt 0.081312 0.026875
vt 0.008247 0.026224
vt 0.154759 0.001611
vt 0.154377 0.027829
vt 0.227819 0.002852
vt 0.227497 0.029337
vt 0.300910 0.003605
vt 0.300569 0.030076
vt 0.374143 0.004398
vt 0.373848 0.030617
vt 0.447400 0.005235
vt 0.447108 0.031449
vt 0.520327 0.006264
vt 0.520147 0.032506
vt 0.593037 0.006369
vt 0.593059 0.032915
vt 0.666016 0.006308
vt 0.665864 0.032864
vt 0.739117 0.006772
vt 0.738966 0.032996
vt 0.081098 0.053509
vt 0.007983 0.052465
vt 0.154062 0.054489
vt 0.227157 0.055584
vt 0.300270 0.056278
vt 0.373508 0.056990
vt 0.446830 0.057771
vt 0.519978 0.058793
vt 0.592967 0.059141
vt 0.665794 0.059050
vt 0.738881 0.059242
vt 0.080742 0.079691
vt 0.007617 0.078729
vt 0.153668 0.080712
vt 0.226883 0.082098
vt 0.299968 0.082738
vt 0.373487 0.083914
vt 0.446390 0.084661
vt 0.519830 0.085099
vt 0.592772 0.085751
vt 0.665816 0.085556
vt 0.738861 0.085457
vt 0.080225 0.106333
vt 0.007170 0.104967
vt 0.153334 0.107369
vt 0.226673 0.108950
vt 0.299927 0.109603
vt 0.373207 0.110206
vt 0.446338 0.110884
vt 0.519563 0.111694
vt 0.592633 0.112271
vt 0.665770 0.111725
vt 0.738835 0.111648
vt 0.079843 0.132889
vt 0.006710 0.131191
vt 0.152961 0.133954
vt 0.226553 0.136389
vt 0.299434 0.136871
vt 0.372985 0.136366
vt 0.446259 0.136988
vt 0.519430 0.138079
vt 0.592562 0.138603
vt 0.665683 0.138210
vt 0.738821 0.138134
vt 0.079355 0.159153
vt 0.006225 0.157455
vt 0.152395 0.160241
vt 0.226241 0.162843
vt 0.299068 0.163471
vt 0.372851 0.162512
vt 0.446058 0.163069
vt 0.519295 0.164571
vt 0.592510 0.165060
vt 0.665715 0.164378
vt 0.738847 0.164331
vt 0.078793 0.185523
vt 0.005767 0.183724
vt 0.151465 0.186522
vt 0.225836 0.189183
vt 0.298835 0.189809
vt 0.373189 0.188701
vt 0.445879 0.189272
vt 0.519107 0.191105
vt 0.592513 0.191563
vt 0.665880 0.190547
vt 0.738878 0.190615
vt 0.078355 0.212876
vt 0.005160 0.210105
vt 0.151561 0.213660
vt 0.225219 0.215696
vt 0.299172 0.216369
vt 0.373090 0.214780
vt 0.445566 0.215459
vt 0.518988 0.218860
vt 0.592412 0.219314
vt 0.665948 0.216762
vt 0.738816 0.217026
vt 0.078071 0.242857
vt 0.004980 0.242085
vt 0.151369 0.243475
vt 0.224932 0.243567
vt 0.298672 0.244337
vt 0.372358 0.246515
vt 0.445648 0.247217
vt 0.518926 0.247054
vt 0.592203 0.247539
vt 0.665402 0.248650
vt 0.738589 0.248984
vt 0.075835 0.420781
vt 0.001837 0.420983
vt 0.148737 0.422964
vt 0.223026 0.424945
vt 0.295708 0.425652
vt 0.370487 0.482795
vt 0.443369 0.481873
vt 0.518160 0.425017
vt 0.591084 0.424621
vt 0.665413 0.426767
vt 0.738419 0.427494
vt 0.073043 0.994088
vt -0.000000 0.993829
vt 0.146137 0.994569
vt 0.219285 0.995113
vt 0.292452 0.995547
vt 0.365592 0.996159
vt 0.438730 0.996736
vt 0.511838 0.997431
vt 0.584910 0.998149
vt 0.657964 0.999069
vt 0.731001 1.000000
vn 0.000000 1.000000 0.000000
vn 0.000000 1.000000 0.000000
vn -0.008194 0.997620 0.068471
vn -0.016407 0.998820 0.045702
vn -0.012506 0.999315 0.034835
vn -0.010510 0.996263 0.085734
vn -0.012446 0.994499 0.104003
vn -0.010513 0.997131 0.074957
vn 0.012446 0.994499 0.104003
vn 0.013969 0.997762 0.065395
vn 0.012506 0.999315 0.034835
vn 0.013974 0.998270 0.057106
vn 0.000000 1.000000 0.000000
vn 0.004756 0.999199 0.039740
vn -0.014393 0.999092 0.040091
vn -0.016838 0.999304 0.033298
vn -0.014301 0.992730 0.119507
vn -0.021555 0.997963 0.060040
vn 0.014301 0.992730 0.119507
vn 0.021555 0.997963 0.060040
vn 0.028708 0.996384 0.079965
vn 0.043143 0.998266 0.040058
vn -0.024560 0.997355 0.068409
vn -0.049169 0.997747 0.045653
vn 0.005871 0.998675 0.051118
vn 0.005877 0.999550 -0.029412
vn -0.006209 0.999938 -0.009196
vn -0.006155 0.993778 0.111214
vn 0.024863 0.991430 0.128250
vn 0.003385 0.999729 0.023038
vn -0.021555 0.997963 -0.060040
vn 0.021555 0.997963 -0.060040
vn 0.043143 0.998266 -0.040058
vn -0.024560 0.997355 -0.068409
vn -0.049169 0.997747 -0.045653
vn 0.008722 0.998211 -0.059157
vn 0.008696 0.999946 0.005746
vn -0.030237 0.998529 0.045013
vn -0.030241 0.997787 0.059215
vn 0.040155 0.997022 0.065841
vn 0.033166 0.998404 0.045710
vn -0.001319 0.999938 -0.011022
vn 0.013073 0.998957 -0.043756
vn 0.014393 0.999092 -0.040091
vn -0.015496 0.999850 -0.007756
vn -0.030982 0.999507 -0.005169
vn -0.027112 0.998000 0.057112
vn -0.025945 0.982010 0.187039
vn -0.002519 0.985955 0.166990
vn -0.003709 0.999990 0.002623
vn 0.027631 0.998699 -0.042859
vn 0.027653 0.999187 0.029353
vn 0.010516 0.997577 0.068776
vn 0.010514 0.997092 0.075477
vn 0.000000 0.996888 0.078836
vn -0.021771 0.995766 0.089311
vn -0.043548 0.996653 0.069183
vn -0.060849 0.988795 0.136319
vn -0.057960 0.980419 0.188199
vn 0.047016 0.985433 0.163439
vn 0.044942 0.997373 0.056806
vn 0.011591 0.999870 0.011259
vn 0.011582 0.999533 0.028280
vn 0.002958 0.998509 0.054511
vn 0.002945 0.995958 0.089768
vn 0.000000 0.994229 0.107277
vn -0.021824 0.999758 0.002810
vn -0.043691 0.998776 0.023173
vn -0.082107 0.996547 0.012354
vn -0.080383 0.993973 0.074544
vn 0.078318 0.994123 0.074732
vn 0.077732 0.996953 0.006540
vn -0.000563 0.999991 -0.004287
vn -0.000559 0.998925 0.046344
vn 0.004392 0.998746 0.049879
vn 0.004398 0.999970 0.006393
vn 0.000000 0.999882 -0.015376
vn -0.014270 0.995405 0.094682
vn -0.028530 0.995040 0.095295
vn -0.080532 0.994710 0.063769
vn -0.081074 0.996704 0.002794
vn 0.086887 0.996026 -0.019589
vn 0.086758 0.996222 -0.003954
vn -0.026319 0.998390 0.050249
vn -0.026290 0.989439 0.142547
vn 0.027534 0.988905 0.145974
vn 0.027575 0.997765 0.060862
vn 0.000000 0.999838 0.017988
vn -0.013047 0.923411 0.383590
vn -0.026076 0.924508 0.380270
vn -0.042030 0.946546 0.319820
vn -0.043338 0.981403 0.187002
vn 0.057328 0.980536 0.187783
vn 0.055260 0.946411 0.318203
vn -0.033881 0.929974 0.366061
vn -0.034262 0.940103 0.339165
vn 0.034262 0.940103 0.339165
vn 0.033881 0.929974 0.366061
vn 0.000000 0.923953 0.382506
vn -0.021689 0.976558 0.214157
vn 0.036287 0.976884 0.210669
vn -0.074944 0.967854 0.240086
vn -0.034902 0.962231 0.269989
vn 0.078500 0.963387 0.256365
vn 0.111192 0.971315 0.210200
vn 0.009359 0.983964 0.178123
vn -0.011196 0.986393 0.164021
vn -0.006345 0.985023 0.172306
vn -0.033034 0.976828 0.211461
vn 0.000000 0.971707 0.236191
vn -0.023456 0.994527 0.101814
vn 0.046573 0.993771 0.101240
vn -0.085712 0.991154 0.101322
vn -0.038831 0.994135 0.100937
vn 0.058716 0.991723 0.114186
vn 0.101384 0.990763 0.090050
vn 0.008086 0.995035 0.099198
vn 0.006449 0.994517 0.104372
vn -0.011651 0.994750 0.101666
vn -0.043121 0.993919 0.101323
vn 0.000000 0.994832 0.101531
vn -0.023452 0.996311 0.082548
vn 0.046642 0.995252 0.085425
vn -0.085937 0.993959 0.068261
vn -0.039027 0.997854 0.052585
vn 0.051100 0.997227 0.054102
vn 0.096705 0.992561 0.073970
vn 0.013337 0.995785 0.090748
vn 0.004262 0.995638 0.093206
vn -0.011780 0.995686 0.092038
vn -0.043140 0.995447 0.084992
vn 0.000000 0.996829 0.079577
s 1
g pPlane1
usemtl initialShadingGroup
f 1/1/1 2/2/2 13/3/3 12/4/4
f 2/2/2 3/5/5 14/6/6 13/3/3
f 3/5/5 4/7/7 15/8/8 14/6/6
f 4/7/7 5/9/9 16/10/10 15/8/8
f 5/9/9 6/11/11 17/12/12 16/10/10
f 6/11/11 7/13/13 18/14/14 17/12/12
f 7/13/13 8/15/15 19/16/16 18/14/14
f 8/15/15 9/17/17 20/18/18 19/16/16
f 9/17/17 10/19/19 21/20/20 20/18/18
f 10/19/19 11/21/21 22/22/22 21/20/20
f 12/4/4 13/3/3 24/23/23 23/24/24
f 13/3/3 14/6/6 25/25/25 24/23/23
f 14/6/6 15/8/8 26/26/26 25/25/25
f 15/8/8 16/10/10 27/27/27 26/26/26
f 16/10/10 17/12/12 28/28/28 27/27/27
f 17/12/12 18/14/14 29/29/29 28/28/28
f 18/14/14 19/16/16 30/30/30 29/29/29
f 19/16/16 20/18/18 31/31/31 30/30/30
f 20/18/18 21/20/20 32/32/32 31/31/31
f 21/20/20 22/22/22 33/33/33 32/32/32
f 23/24/24 24/23/23 35/34/34 34/35/35
f 24/23/23 25/25/25 36/36/36 35/34/34
f 25/25/25 26/26/26 37/37/37 36/36/36
f 26/26/26 27/27/27 38/38/38 37/37/37
f 27/27/27 28/28/28 39/39/39 38/38/38
f 28/28/28 29/29/29 40/40/40 39/39/39
f 29/29/29 30/30/30 41/41/41 40/40/40
f 30/30/30 31/31/31 42/42/42 41/41/41
f 31/31/31 32/32/32 43/43/43 42/42/42
f 32/32/32 33/33/33 44/44/44 43/43/43
f 34/35/35 35/34/34 46/45/45 45/46/46
f 35/34/34 36/36/36 47/47/47 46/45/45
f 36/36/36 37/37/37 48/48/48 47/47/47
f 37/37/37 38/38/38 49/49/49 48/48/48
f 38/38/38 39/39/39 50/50/50 49/49/49
f 39/39/39 40/40/40 51/51/51 50/50/50
f 40/40/40 41/41/41 52/52/52 51/51/51
f 41/41/41 42/42/42 53/53/53 52/52/52
f 42/42/42 43/43/43 54/54/54 53/53/53
f 43/43/43 44/44/44 55/55/55 54/54/54
f 45/46/46 46/45/45 57/56/56 56/57/57
f 46/45/45 47/47/47 58/58/58 57/56/56
f 47/47/47 48/48/48 59/59/59 58/58/58
f 48/48/48 49/49/49 60/60/60 59/59/59
f 49/49/49 50/50/50 61/61/61 60/60/60
f 50/50/50 51/51/51 62/62/62 61/61/61
f 51/51/51 52/52/52 63/63/63 62/62/62
f 52/52/52 53/53/53 64/64/64 63/63/63
f 53/53/53 54/54/54 65/65/65 64/64/64
f 54/54/54 55/55/55 66/66/66 65/65/65
f 56/57/57 57/56/56 68/67/67 67/68/68
f 57/56/56 58/58/58 69/69/69 68/67/67
f 58/58/58 59/59/59 70/70/70 69/69/69
f 59/59/59 60/60/60 71/71/71 70/70/70
f 60/60/60 61/61/61 72/72/72 71/71/71
f 61/61/61 62/62/62 73/73/73 72/72/72
f 62/62/62 63/63/63 74/74/74 73/73/73
f 63/63/63 64/64/64 75/75/75 74/74/74
f 64/64/64 65/65/65 76/76/76 75/75/75
f 65/65/65 66/66/66 77/77/77 76/76/76
f 67/68/68 68/67/67 79/78/78 78/79/79
f 68/67/67 69/69/69 80/80/80 79/78/78
f 69/69/69 70/70/70 81/81/81 80/80/80
f 70/70/70 71/71/71 82/82/82 81/81/81
f 71/71/71 72/72/72 83/83/83 82/82/82
f 72/72/72 73/73/73 84/84/84 83/83/83
f 73/73/73 74/74/74 85/85/85 84/84/84
f 74/74/74 75/75/75 86/86/86 85/85/85
f 75/75/75 76/76/76 87/87/87 86/86/86
f 76/76/76 77/77/77 88/88/88 87/87/87
f 78/79/79 79/78/78 90/89/89 89/90/90
f 79/78/78 80/80/80 91/91/91 90/89/89
f 80/80/80 81/81/81 92/92/92 91/91/91
f 81/81/81 82/82/82 93/93/93 92/92/92
f 82/82/82 83/83/83 94/94/94 93/93/93
f 83/83/83 84/84/84 95/95/95 94/94/94
f 84/84/84 85/85/85 96/96/96 95/95/95
f 85/85/85 86/86/86 97/97/97 96/96/96
f 86/86/86 87/87/87 98/98/98 97/97/97
f 87/87/87 88/88/88 99/99/99 98/98/98
f 89/90/90 90/89/89 101/100/100 100/101/101
f 90/89/89 91/91/91 102/102/102 101/100/100
f 91/91/91 92/92/92 103/103/103 102/102/102
f 92/92/92 93/93/93 104/104/104 103/103/103
f 93/93/93 94/94/94 105/105/105 104/104/104
f 94/94/94 95/95/95 106/106/106 105/105/105
f 95/95/95 96/96/96 107/107/107 106/106/106
f 96/96/96 97/97/97 108/108/108 107/107/107
f 97/97/97 98/98/98 109/109/109 108/108/108
f 98/98/98 99/99/99 110/110/110 109/109/109
f 100/101/101 101/100/100 112/111/111 111/112/112
f 101/100/100 102/102/102 113/113/113 112/111/111
f 102/102/102 103/103/103 114/114/114 113/113/113
f 103/103/103 104/104/104 115/115/115 114/114/114
f 104/104/104 105/105/105 116/116/116 115/115/115
f 105/105/105 106/106/106 117/117/117 116/116/116
f 106/106/106 107/107/107 118/118/118 117/117/117
f 107/107/107 108/108/108 119/119/119 118/118/118
f 108/108/108 109/109/109 120/120/120 119/119/119
f 109/109/109 110/110/110 121/121/121 120/120/120
f 111/112/112 112/111/111 123/122/122 122/123/123
f 112/111/111 113/113/113 124/124/124 123/122/122
f 113/113/113 114/114/114 125/125/125 124/124/124
f 114/114/114 115/115/115 126/126/126 125/125/125
f 115/115/115 116/116/116 127/127/127 126/126/126
f 116/116/116 117/117/117 128/128/128 127/127/127
f 117/117/117 118/118/118 129/129/129 128/128/128
f 118/118/118 119/119/119 130/130/130 129/129/129
f 119/119/119 120/120/120 131/131/131 130/130/130
f 120/120/120 121/121/121 132/132/132 131/131/131
